<svg width="2962" height="719" viewBox="0 0 2962 719" fill="none" xmlns="http://www.w3.org/2000/svg">
<path d="M104.934 0H290.687V265.926L221.03 359H104.934V0Z" fill="#099C2E"/>
<path d="M104.934 719H290.687V452.333L221.03 359H104.934V719Z" fill="#099C2E"/>
<path d="M0.999615 163.671V533.851L55.1777 607V92L0.999615 163.671Z" fill="#099C2E" stroke="black"/>
<path fill-rule="evenodd" clip-rule="evenodd" d="M316.118 0H580.706H2962V472.688L2699.79 719H580.706H316.118V452.704L415.339 359.5L316.118 266.296V0Z" fill="#8C8C8C"/>
<path d="M684.849 227.95H801.849C830.349 227.95 852.849 229.9 869.349 233.8C886.149 237.7 898.299 244.6 905.799 254.5C913.599 264.1 917.499 277.6 917.499 295V350.35C917.499 369.55 913.299 384.55 904.899 395.35C896.799 406.15 883.749 413.8 865.749 418.3C848.049 422.8 824.049 425.05 793.749 425.05H755.049V520H684.849V227.95ZM799.599 376.9C817.899 376.9 830.799 374.8 838.299 370.6C845.799 366.1 849.549 358.6 849.549 348.1V301.3C849.549 291.7 845.949 285.4 838.749 282.4C831.849 279.4 818.499 277.9 798.699 277.9H755.049V376.9H799.599ZM966.978 227.95H1037.18V470.05H1180.73V520H966.978V227.95ZM1305.41 227.95H1390.91L1496.21 520H1425.11L1399.01 443.05H1292.36L1266.71 520H1197.41L1305.41 227.95ZM1383.71 396.25L1346.81 286.45H1345.01L1308.11 396.25H1383.71ZM1606.45 403L1500.7 227.95H1580.35L1642 342.25L1703.2 227.95H1783.3L1676.65 402.1V520H1606.45V403Z" fill="white"/>
</svg>
